<svg width="54" height="49" viewBox="0 0 54 49" fill="none" xmlns="http://www.w3.org/2000/svg">
<path d="M7 7V0H11.6667V7H18.6667V11.6667H11.6667V18.6667H7V11.6667H0V7H7ZM14 21V14H21V7H37.3333L41.6033 11.6667H49C51.5667 11.6667 53.6667 13.7667 53.6667 16.3333V44.3333C53.6667 46.9 51.5667 49 49 49H11.6667C9.1 49 7 46.9 7 44.3333V21H14ZM30.3333 42C36.7733 42 42 36.7733 42 30.3333C42 23.8933 36.7733 18.6667 30.3333 18.6667C23.8933 18.6667 18.6667 23.8933 18.6667 30.3333C18.6667 36.7733 23.8933 42 30.3333 42ZM22.8667 30.3333C22.8667 34.4633 26.2033 37.8 30.3333 37.8C34.4633 37.8 37.8 34.4633 37.8 30.3333C37.8 26.2033 34.4633 22.8667 30.3333 22.8667C26.2033 22.8667 22.8667 26.2033 22.8667 30.3333Z" fill="#E63946"/>
</svg>
