<svg width="56" height="56" viewBox="0 0 56 56" fill="none" xmlns="http://www.w3.org/2000/svg">
<path d="M46.9753 28.2535C47.1017 15.0916 37.2535 4.09708 24.5585 2.41216C25.6828 2.26472 26.8312 2.1875 28 2.1875C42.289 2.1875 53.9487 13.9393 53.8112 28.2535L53.8125 53.8125L53.3846 53.3846C51.6003 51.6003 49.3487 50.4655 46.9764 50.0473L46.9753 28.2535Z" fill="#457B9D"/>
<path d="M53.8129 56C54.0948 56 54.379 55.9455 54.6497 55.8334C55.4671 55.4948 56 54.6971 56 53.8123L55.9987 28.2628C56.0675 20.7606 53.1822 13.677 47.8734 8.31686C42.5614 2.95367 35.5035 0 28.0001 0C20.4408 0 13.3721 2.93354 8.09619 8.2602C2.80355 13.6039 -0.0712547 20.7119 0.00136948 28.2745C0.0727921 35.7222 3.03433 42.6999 8.34053 47.9223C13.6332 53.1315 20.6512 55.9999 28.1028 55.9999C28.1116 55.9999 28.1209 55.9999 28.1298 55.9999C32.5376 56 36.7457 55.0114 40.6368 53.0614C44.3547 51.1982 48.856 51.9494 51.8377 54.9314L52.2656 55.3593C52.6841 55.7776 53.2438 55.9999 53.8129 56ZM44.924 47.6711C42.7997 47.6711 40.6625 48.1549 38.6766 49.1502C35.3998 50.7923 31.8507 51.6249 28.1278 51.6249C28.1208 51.625 28.112 51.6249 28.1052 51.6249C15.142 51.6259 4.50017 41.134 4.37625 28.2325C4.31489 21.8463 6.73994 15.8468 11.2047 11.339C15.6524 6.84817 21.6172 4.37499 28.0001 4.37499C34.3271 4.37499 40.2809 6.8683 44.7649 11.3955C49.2487 15.9227 51.6846 21.9021 51.6238 28.2325C51.6237 28.2395 51.6237 28.2466 51.6237 28.2536L51.6248 49.3702C49.5519 48.2495 47.2459 47.6711 44.924 47.6711Z" fill="#1D3557"/>
<path d="M28 39.6955C29.4675 39.6956 30.9344 39.2372 32.159 38.3202C37.2118 34.5368 39.9339 30.0053 40.0308 25.2156C40.0311 25.2009 40.0312 25.1861 40.0312 25.1715C40.0312 21.2429 36.842 18.0469 32.9219 18.0469C31.0135 18.0469 29.2783 18.8027 28 20.0307C26.7216 18.8027 24.9865 18.0469 23.0781 18.0469C19.158 18.0469 15.9688 21.2429 15.9688 25.1713C15.9688 25.1861 15.9689 25.2009 15.9692 25.2155C16.0661 30.0052 18.7881 34.5368 23.8411 38.3202C25.0653 39.2369 26.5329 39.6954 28 39.6955ZM35.6561 25.1511C35.5576 29.4267 32.2756 32.7673 29.5367 34.8181C28.6319 35.4957 27.3682 35.4955 26.4634 34.8182C23.7244 32.7673 20.4424 29.4267 20.3439 25.1511C20.3546 23.6444 21.5771 22.4219 23.0781 22.4219C24.5859 22.4219 25.8125 23.6485 25.8125 25.1563C25.8125 26.3644 26.7919 27.3438 28 27.3438C29.2082 27.3438 30.1875 26.3644 30.1875 25.1563C30.1875 23.6485 31.4141 22.4219 32.9219 22.4219C34.4228 22.4219 35.6453 23.6444 35.6561 25.1511Z" fill="#E63946"/>
</svg>
