<svg width="312" height="56" viewBox="0 0 312 56" fill="none" xmlns="http://www.w3.org/2000/svg">
<path d="M16.9453 49.3945C19.2656 49.3945 21.293 48.6914 23.0273 47.2852C24.7617 45.8789 25.7227 44.1211 25.9102 42.0117H32.0625C31.9453 44.1914 31.1953 46.2656 29.8125 48.2344C28.4297 50.2031 26.5781 51.7734 24.2578 52.9453C21.9609 54.1172 19.5234 54.7031 16.9453 54.7031C11.7656 54.7031 7.64062 52.9805 4.57031 49.5352C1.52344 46.0664 0 41.332 0 35.332V34.2422C0 30.5391 0.679688 27.2461 2.03906 24.3633C3.39844 21.4805 5.34375 19.2422 7.875 17.6484C10.4297 16.0547 13.4414 15.2578 16.9102 15.2578C21.1758 15.2578 24.7148 16.5352 27.5273 19.0898C30.3633 21.6445 31.875 24.9609 32.0625 29.0391H25.9102C25.7227 26.5781 24.7852 24.5625 23.0977 22.9922C21.4336 21.3984 19.3711 20.6016 16.9102 20.6016C13.6055 20.6016 11.0391 21.7969 9.21094 24.1875C7.40625 26.5547 6.50391 29.9883 6.50391 34.4883V35.7188C6.50391 40.1016 7.40625 43.4766 9.21094 45.8438C11.0156 48.2109 13.5938 49.3945 16.9453 49.3945Z" fill="#1D3557"/>
<path d="M57.7617 21.7969C56.7773 21.6328 55.7109 21.5508 54.5625 21.5508C50.2969 21.5508 47.4023 23.3672 45.8789 27V54H39.375V15.9609H45.7031L45.8086 20.3555C47.9414 16.957 50.9648 15.2578 54.8789 15.2578C56.1445 15.2578 57.1055 15.4219 57.7617 15.75V21.7969Z" fill="#1D3557"/>
<path d="M87.2578 50.2383C84.7266 53.2148 81.0117 54.7031 76.1133 54.7031C72.0586 54.7031 68.9648 53.5312 66.832 51.1875C64.7227 48.8203 63.6562 45.3281 63.6328 40.7109V15.9609H70.1367V40.5352C70.1367 46.3008 72.4805 49.1836 77.168 49.1836C82.1367 49.1836 85.4414 47.332 87.082 43.6289V15.9609H93.5859V54H87.3984L87.2578 50.2383Z" fill="#1D3557"/>
<path d="M125.648 43.9102C125.648 42.1523 124.98 40.793 123.645 39.832C122.332 38.8477 120.023 38.0039 116.719 37.3008C113.438 36.5977 110.824 35.7539 108.879 34.7695C106.957 33.7852 105.527 32.6133 104.59 31.2539C103.676 29.8945 103.219 28.2773 103.219 26.4023C103.219 23.2852 104.531 20.6484 107.156 18.4922C109.805 16.3359 113.18 15.2578 117.281 15.2578C121.594 15.2578 125.086 16.3711 127.758 18.5977C130.453 20.8242 131.801 23.6719 131.801 27.1406H125.262C125.262 25.3594 124.5 23.8242 122.977 22.5352C121.477 21.2461 119.578 20.6016 117.281 20.6016C114.914 20.6016 113.062 21.1172 111.727 22.1484C110.391 23.1797 109.723 24.5273 109.723 26.1914C109.723 27.7617 110.344 28.9453 111.586 29.7422C112.828 30.5391 115.066 31.3008 118.301 32.0273C121.559 32.7539 124.195 33.6211 126.211 34.6289C128.227 35.6367 129.715 36.8555 130.676 38.2852C131.66 39.6914 132.152 41.4141 132.152 43.4531C132.152 46.8516 130.793 49.582 128.074 51.6445C125.355 53.6836 121.828 54.7031 117.492 54.7031C114.445 54.7031 111.75 54.1641 109.406 53.0859C107.062 52.0078 105.223 50.5078 103.887 48.5859C102.574 46.6406 101.918 44.543 101.918 42.293H108.422C108.539 44.4727 109.406 46.207 111.023 47.4961C112.664 48.7617 114.82 49.3945 117.492 49.3945C119.953 49.3945 121.922 48.9023 123.398 47.918C124.898 46.9102 125.648 45.5742 125.648 43.9102Z" fill="#1D3557"/>
<path d="M147.129 20.5664C150.012 17.0273 153.762 15.2578 158.379 15.2578C166.418 15.2578 170.473 19.793 170.543 28.8633V54H164.039V28.8281C164.016 26.0859 163.383 24.0586 162.141 22.7461C160.922 21.4336 159.012 20.7773 156.41 20.7773C154.301 20.7773 152.449 21.3398 150.855 22.4648C149.262 23.5898 148.02 25.0664 147.129 26.8945V54H140.625V0H147.129V20.5664Z" fill="#1D3557"/>
<path d="M178.83 35.2578C182.744 31.7891 185.931 28.4492 188.392 25.2383C190.876 22.0039 192.822 18.9688 194.228 16.1328C195.634 13.2969 196.595 10.6836 197.111 8.29297C197.626 5.90234 197.884 3.80469 197.884 2H203.65C203.65 4.10938 203.31 6.20703 202.63 8.29297C201.974 10.3555 201.095 12.3828 199.994 14.375C198.892 16.3672 197.65 18.2891 196.267 20.1406C194.884 21.9922 193.478 23.75 192.048 25.4141C190.619 27.0547 189.224 28.5898 187.865 30.0195C186.529 31.4258 185.357 32.668 184.349 33.7461C184.677 33.6992 185.017 33.6523 185.369 33.6055C185.744 33.5586 186.201 33.5352 186.74 33.5352C188.287 33.5352 189.728 33.793 191.064 34.3086C192.4 34.8008 193.666 35.375 194.861 36.0312C196.08 36.6875 197.251 37.3438 198.376 38C199.525 38.6328 200.662 39.0898 201.787 39.3711C201.927 35.1992 201.998 30.8047 201.998 26.1875V21.4414L207.025 20C207.025 21.1484 207.013 22.4609 206.99 23.9375C206.99 25.3906 206.978 26.9609 206.955 28.6484C206.931 30.3125 206.896 32.0703 206.849 33.9219C206.826 35.75 206.791 37.6133 206.744 39.5117C207.259 39.4414 207.763 39.3242 208.255 39.1602C208.771 38.9961 209.345 38.7266 209.978 38.3516L210.857 39.4414C210.248 39.957 209.58 40.3789 208.853 40.707C208.126 41.0117 207.4 41.2344 206.673 41.375C206.603 43.5781 206.521 45.793 206.427 48.0195C206.333 50.2461 206.228 52.4258 206.111 54.5586H201.083C201.201 52.4492 201.318 50.3047 201.435 48.125C201.552 45.9219 201.646 43.6484 201.716 41.3047C200.498 41.0234 199.302 40.5547 198.13 39.8984C196.982 39.2188 195.798 38.5391 194.58 37.8594C193.361 37.1562 192.083 36.5469 190.748 36.0312C189.412 35.5156 187.958 35.2578 186.388 35.2578C185.591 35.2578 184.865 35.3398 184.208 35.5039C183.576 35.668 183.001 35.8672 182.486 36.1016C181.97 36.3359 181.513 36.582 181.115 36.8398C180.74 37.0742 180.412 37.2734 180.13 37.4375L178.83 35.2578Z" fill="#E63946"/>
<path d="M228.4 54.7383H221.896V0.738281H228.4V54.7383Z" fill="#1D3557"/>
<path d="M245.908 54.7383H239.404V16.6992H245.908V54.7383ZM238.876 6.60938C238.876 5.55469 239.193 4.66406 239.826 3.9375C240.482 3.21094 241.443 2.84766 242.708 2.84766C243.974 2.84766 244.935 3.21094 245.591 3.9375C246.248 4.66406 246.576 5.55469 246.576 6.60938C246.576 7.66406 246.248 8.54297 245.591 9.24609C244.935 9.94922 243.974 10.3008 242.708 10.3008C241.443 10.3008 240.482 9.94922 239.826 9.24609C239.193 8.54297 238.876 7.66406 238.876 6.60938Z" fill="#1D3557"/>
<path d="M259.548 54.7383V21.7266H253.537V16.6992H259.548V12.7969C259.548 8.71875 260.638 5.56641 262.818 3.33984C264.998 1.11328 268.08 0 272.064 0C273.564 0 275.052 0.199219 276.529 0.597656L276.177 5.87109C275.076 5.66016 273.904 5.55469 272.662 5.55469C270.552 5.55469 268.923 6.17578 267.775 7.41797C266.626 8.63672 266.052 10.3945 266.052 12.6914V16.6992H274.173V21.7266H266.052V54.7383H259.548Z" fill="#1D3557"/>
<path d="M296.322 55.4414C291.166 55.4414 286.97 53.7539 283.736 50.3789C280.501 46.9805 278.884 42.4453 278.884 36.7734V35.5781C278.884 31.8047 279.599 28.4414 281.029 25.4883C282.482 22.5117 284.498 20.1914 287.076 18.5273C289.677 16.8398 292.49 15.9961 295.513 15.9961C300.458 15.9961 304.302 17.625 307.044 20.8828C309.787 24.1406 311.158 28.8047 311.158 34.875V37.582H285.388C285.482 41.332 286.572 44.3672 288.658 46.6875C290.767 48.9844 293.439 50.1328 296.673 50.1328C298.97 50.1328 300.916 49.6641 302.509 48.7266C304.103 47.7891 305.498 46.5469 306.693 45L310.666 48.0938C307.478 52.9922 302.697 55.4414 296.322 55.4414ZM295.513 21.3398C292.888 21.3398 290.685 22.3008 288.904 24.2227C287.123 26.1211 286.021 28.793 285.599 32.2383H304.654V31.7461C304.466 28.4414 303.576 25.8867 301.982 24.082C300.388 22.2539 298.232 21.3398 295.513 21.3398Z" fill="#1D3557"/>
</svg>
